<?xml version="1.0" encoding="UTF-8" standalone="no"?>
<!DOCTYPE svg PUBLIC "-//W3C//DTD SVG 1.1//EN" "http://www.w3.org/Graphics/SVG/1.1/DTD/svg11.dtd">
<svg width="100%" height="100%" viewBox="0 0 525 179" version="1.1" xmlns="http://www.w3.org/2000/svg" xmlns:xlink="http://www.w3.org/1999/xlink" xml:space="preserve" xmlns:serif="http://www.serif.com/" style="fill-rule:evenodd;clip-rule:evenodd;stroke-linejoin:round;stroke-miterlimit:2;">
    <g id="path12" transform="matrix(0.133299,1.25004e-20,-1.25004e-20,-0.133197,-300.544,222.104)">
        <path d="M3956.79,972.871C3909.86,934.012 3918.13,880.672 3976.13,864.75C4057.64,841.852 4127.44,885.332 4101.19,936.359C4074.25,987.852 3987.18,1022.02 3862.87,1021.07C3746.14,1020.13 3665.31,1001.9 3644.6,928.398C3630.09,869.461 3672.21,830.59 3723.34,807.691C3771.7,785.219 3831.79,769.762 3867.01,749.16C3895.35,730.941 3902.2,701.449 3853.9,681.738C3813.15,672.422 3789.62,673.359 3756.45,684.102C3771.02,751.059 3737.17,800.672 3662.52,797.371C3607.98,797.371 3544.44,760.391 3584.52,705.172C3621.81,659.801 3696.41,633.082 3791.71,630.762C3937.47,630.289 4036.23,661.621 4046.6,740.27C4048.69,798.32 4005.83,832.949 3935.42,857.25C3897.39,871.762 3860.13,886.27 3826.25,904.082C3802.08,918.129 3800,944.332 3816.61,961.66C3848.34,991.582 3910.53,987.852 3956.79,972.871" style="fill:rgb(35,31,32);"/>
    </g>
    <g id="path14" transform="matrix(0.133299,1.25004e-20,-1.25004e-20,-0.133197,-300.544,222.104)">
        <path d="M4460.62,972.871C4444.08,905.449 4462.72,848.809 4566.35,860.078C4638.19,874.121 4647.88,911.582 4623.67,955.121C4591.19,998.129 4517.99,1018.24 4426.78,1017.77C4249.98,1016.82 4122.19,916.25 4118.74,803.449C4118.74,720.621 4197.48,633.082 4335.62,631.23C4468.23,629.828 4533.13,674.309 4572.53,751.988C4577.41,767.871 4559.45,773.48 4546.28,759.961C4486.87,712.191 4413,706.109 4351.51,730C4284.5,761.328 4272.77,809.039 4285.17,861.031C4307.28,940.609 4377.76,971.941 4460.62,972.871" style="fill:rgb(35,31,32);"/>
    </g>
    <g id="path16" transform="matrix(0.133299,1.25004e-20,-1.25004e-20,-0.133197,-300.544,222.104)">
        <path d="M5316.95,824.141C5408.83,830.219 5468.25,854.051 5511.73,902.781C5530.43,950.98 5483.44,972.031 5395.74,941.602C5341.15,914.461 5314.17,875.59 5316.95,824.141M5328.74,775.469C5440.64,782.48 5436.45,782.012 5542.17,809.16C5618.14,831.641 5651.98,899.469 5634.01,949.082C5618.14,992.148 5533.84,1020.7 5455.78,1018.81C5309.35,1022.06 5156.05,917.238 5152.59,804.488C5152.59,721.621 5231.28,634.121 5369.44,632.238C5502.09,630.82 5580.15,669.219 5619.5,746.922C5624.37,762.789 5606.4,768.449 5593.25,754.871C5483.44,666.398 5344.6,724.449 5328.74,775.469" style="fill:rgb(35,31,32);"/>
    </g>
    <g id="path18" transform="matrix(0.133299,1.25004e-20,-1.25004e-20,-0.133197,-300.544,222.104)">
        <path d="M5717.2,1018.08L5952.75,1018.08C5949.98,1007.81 5947.19,997.5 5944.47,986.699C5985.91,1007.34 6027.36,1024.16 6075.71,1023.74C6148.27,1024.63 6194.53,988.602 6193.12,950.719C6194.53,894.082 6146.18,858.512 6070.89,862.75C5989.37,866.949 5963.12,911.898 5952.75,950.719C5930.64,945.109 5923.04,937.148 5920.27,922.641C5896.8,847.301 5873.33,771.488 5850.54,695.68C5838.8,658.219 5866.41,650.719 5882.96,636.211L5605.98,636.211C5629.51,649.32 5660.57,658.691 5670.94,680.699C5700.65,775.211 5728.94,869.781 5758.65,964.289C5764.88,991.898 5739.31,1000.33 5717.2,1018.08" style="fill:rgb(35,31,32);"/>
    </g>
    <g id="path20" transform="matrix(0.133299,1.25004e-20,-1.25004e-20,-0.133197,-300.544,222.104)">
        <path d="M4961.17,1182.64L4751.86,1182.64C4772.61,1165.3 4791.95,1156.86 4782.25,1128.78C4729.75,979.531 4677.26,830.219 4624.76,680.43C4614.45,658.422 4579.19,650.039 4549.49,636.949L4828.56,636.949C4816.83,644.859 4777.44,656.121 4785.72,677.66C4815.42,759.551 4847.21,850.332 4876.25,932.219C4887.97,955.641 4962.57,963.129 4939.73,915.82C4919.72,851.738 4899.71,787.629 4879.69,723.5C4869.32,686.039 4893.47,636.48 4972.91,636.949C5035.08,636.48 5062.75,656.121 5085.48,690.762C5097.95,709.461 5087.58,717.422 5075.16,709.922C5030.94,681.852 5030.27,704.801 5039.96,730.039C5060.66,798.359 5082.04,866.738 5103.45,934.57C5126.25,1023.01 4990.18,1037.99 4892.11,988.441C4915.58,1053.45 4938.37,1118.04 4961.17,1182.64" style="fill:rgb(35,31,32);"/>
    </g>
    <g id="path22" transform="matrix(0.133299,1.25004e-20,-1.25004e-20,-0.133197,-300.544,222.104)">
        <path d="M3515,1168.54C3569.31,1168.54 3613.43,1139.78 3613.43,1104.26C3613.43,1068.8 3569.31,1040.03 3515,1040.03C3460.61,1040.03 3416.56,1068.8 3416.56,1104.26C3416.56,1139.78 3460.61,1168.54 3515,1168.54" style="fill:rgb(35,31,32);"/>
    </g>
    <g id="path24" transform="matrix(0.133299,1.25004e-20,-1.25004e-20,-0.133197,-300.544,222.104)">
        <path d="M3343.73,972.871C3369.98,1003.32 3417.59,1021.07 3479.78,1021.54C3550.25,1022.95 3579.96,979.898 3563.34,934.941C3535.74,854.469 3512.26,786.148 3484.6,705.641C3474.97,680.801 3501.22,683.16 3524.68,704.691C3531.61,711.23 3544.69,708.941 3540.55,698.621C3508.07,657.91 3468.74,634.02 3405.18,634.961C3327.81,635.43 3303.65,689.711 3320.2,729.531C3343.73,800.672 3367.89,871.289 3392.08,941.961C3401.04,959.781 3392.08,968.691 3370.65,961.66C3362.33,959.309 3348.54,952.289 3340.95,955.539C3334.71,960.25 3336.81,965.391 3343.73,972.871" style="fill:rgb(35,31,32);"/>
    </g>
    <g id="path26" transform="matrix(0.133299,1.25004e-20,-1.25004e-20,-0.133197,-300.544,222.104)">
        <path d="M3283.17,1096.04L3390.93,1124.43L3386.74,1065.02L3263.16,1012.84L3137.42,509.121C3109.75,398.211 3038.67,323.609 2907.38,323.609L2587.59,323.609L2597.23,386.988L2751.99,386.988C2814.86,382.379 2870.81,425.289 2892.86,509.121C2924.67,638.531 2956.42,767.93 2988.22,897.332L2410.04,654.398L2527.44,893.34L3019.28,1025.42C3020.7,1032.65 3022.74,1039.93 3024.84,1047.21C2872.85,1016.14 2725.01,989.75 2568.89,988.441C2403.86,985.141 2258.11,1053.81 2254.65,1196.36C2257.38,1313.93 2371.37,1420.17 2510.21,1488.86C3096.66,1760.87 3670.01,1682.28 4278.52,1517.25C4183.23,1447.94 4087.92,1378.64 3991.9,1309.32C3704.54,1429.45 3451.02,1498.76 3147.06,1504.05C2923.93,1506.04 2765.82,1493.52 2573.76,1372.66C2454.94,1293.45 2422.45,1161.42 2559.93,1110.6C2726.42,1058.43 2878.41,1076.23 3035.84,1101.33C3056.58,1181.22 3075.22,1261.07 3095.25,1340.96L3367.47,1431.44L3283.17,1096.04" style="fill:rgb(35,31,32);"/>
    </g>
</svg>
